<?xml version="1.0" encoding="UTF-8" standalone="no"?>
<svg width="67px" height="67px" viewBox="0 0 67 67" version="1.1" xmlns="http://www.w3.org/2000/svg" xmlns:xlink="http://www.w3.org/1999/xlink" xmlns:sketch="http://www.bohemiancoding.com/sketch/ns">
    <!-- Generator: Sketch 3.3.3 (12072) - http://www.bohemiancoding.com/sketch -->
    <title>Mars</title>
    <desc>Created with Sketch.</desc>
    <defs>
        <path d="M33.2128571,66.6989351 C23.2411688,66.6989351 14.2962338,62.2943377 8.21924675,55.3263377 C14.2962338,62.2943377 23.2411688,66.6989351 33.2128571,66.6989351 M0.0635194805,33.5495974 L0.0635194805,33.5495974 C0.0635194805,15.2411948 14.9053247,0.40025974 33.2128571,0.40025974 C14.9053247,0.40025974 0.0635194805,15.2411948 0.0635194805,33.5495974" id="path-1"></path>
    </defs>
    <g id="Welcome" stroke="none" stroke-width="1" fill="none" fill-rule="evenodd" sketch:type="MSPage">
        <g id="Desktop-HD" sketch:type="MSArtboardGroup" transform="translate(-826.000000, -170.000000)">
            <g id="Planets" sketch:type="MSLayerGroup" transform="translate(264.000000, 138.000000)">
                <g id="Mars" transform="translate(562.000000, 32.000000)">
                    <path d="M33.2128571,0.40025974 C14.9053247,0.40025974 0.0635194805,15.2411948 0.0635194805,33.5495974 C0.0635194805,51.8571299 14.9053247,66.6989351 33.2128571,66.6989351 C51.5212597,66.6989351 66.3621948,51.8571299 66.3621948,33.5495974 C66.3621948,15.2411948 51.5212597,0.40025974 33.2128571,0.40025974" id="Fill-206" fill="#D84444" sketch:type="MSShapeGroup"></path>
                    <path d="M42.4057792,18.9035714 C40.8943636,18.9035714 39.2245844,18.5546494 37.5835195,17.8263506 C33.2241688,15.8929221 30.7138442,12.0164935 31.9772727,9.16768831 C32.7647403,7.39175325 34.833039,6.43461039 37.3364026,6.43461039 C38.8478182,6.43461039 40.5175974,6.78353247 42.1586623,7.51183117 C46.5188831,9.44525974 49.0292078,13.3216883 47.7657792,16.1704935 C46.9774416,17.9464286 44.9091429,18.9035714 42.4057792,18.9035714 M38.1195195,7.33171429 C36.106039,7.33171429 34.4432208,8.10090909 33.8097662,9.52966234 C32.7934545,11.8198442 34.8121558,14.9375195 38.3179091,16.4924416 C39.6378961,17.078039 40.9805065,17.3582208 42.1960779,17.3582208 C44.2086883,17.3582208 45.8723766,16.589026 46.5058312,15.1602727 C47.5221429,12.8700909 45.5034416,9.75241558 41.9968182,8.19749351 C40.6777013,7.6118961 39.3350909,7.33171429 38.1195195,7.33171429" id="Fill-207" fill="#BF3A2F" sketch:type="MSShapeGroup"></path>
                    <path d="M42.1960779,17.3582208 C40.9805065,17.3582208 39.6378961,17.078039 38.3179091,16.4924416 C34.8121558,14.9375195 32.7934545,11.8198442 33.8097662,9.52966234 C34.4432208,8.10090909 36.106039,7.33171429 38.1195195,7.33171429 C39.3350909,7.33171429 40.6777013,7.6118961 41.9968182,8.19749351 C45.5034416,9.75241558 47.5221429,12.8700909 46.5058312,15.1602727 C45.8723766,16.589026 44.2086883,17.3582208 42.1960779,17.3582208" id="Fill-208" fill="#F26159" sketch:type="MSShapeGroup"></path>
                    <path d="M57.5912857,38.3370519 C56.1738442,38.3370519 54.5928182,36.9961818 53.7853377,34.9722597 C52.8255844,32.5672208 53.3215584,30.109974 54.8921429,29.4834805 C55.141,29.3842857 55.402039,29.3364286 55.6682987,29.3364286 C57.0848701,29.3364286 58.6667662,30.6781688 59.4742468,32.7020909 C60.434,35.1062597 59.938026,37.5635065 58.3665714,38.1908701 C58.1185844,38.2900649 57.8575455,38.3370519 57.5912857,38.3370519 M56.0903117,30.2004675 C55.8762597,30.2004675 55.6665584,30.2387532 55.4664286,30.3188052 C54.2038701,30.8226104 53.8053506,32.7986753 54.5762857,34.7321039 C55.2262727,36.3601169 56.4975325,37.4382078 57.6374026,37.4382078 C57.8514545,37.4382078 58.0611558,37.4007922 58.2612857,37.3207403 C59.5247143,36.8169351 59.9232338,34.8408701 59.1514286,32.9065714 C58.5023117,31.2794286 57.2301818,30.2004675 56.0903117,30.2004675" id="Fill-209" fill="#BF3A2F" sketch:type="MSShapeGroup"></path>
                    <path d="M57.6374026,37.4382078 C56.4975325,37.4382078 55.2262727,36.3601169 54.5762857,34.7321039 C53.8053506,32.7986753 54.2038701,30.8226104 55.4664286,30.3188052 C55.6665584,30.2387532 55.8762597,30.2004675 56.0903117,30.2004675 C57.2301818,30.2004675 58.5023117,31.2794286 59.1514286,32.9065714 C59.9232338,34.8408701 59.5247143,36.8169351 58.2612857,37.3207403 C58.0611558,37.4007922 57.8514545,37.4382078 57.6374026,37.4382078" id="Fill-210" fill="#F26159" sketch:type="MSShapeGroup"></path>
                    <path d="M37.6627013,46.3744416 C35.3890519,46.3744416 33.5461169,44.8656364 33.5461169,43.0052987 C33.5461169,41.144961 35.3890519,39.6361558 37.6627013,39.6361558 C39.9354805,39.6361558 41.7784156,41.144961 41.7784156,43.0052987 C41.7784156,44.8656364 39.9354805,46.3744416 37.6627013,46.3744416" id="Fill-211" fill="#F86969" sketch:type="MSShapeGroup"></path>
                    <path d="M32.2531039,27.1071558 C31.8293506,27.1071558 31.3707922,27.0105714 30.9226753,26.8078312 C29.6705584,26.2422468 28.9814156,25.0632208 29.3834156,24.1748182 C29.640974,23.604013 30.2866104,23.2916364 31.0471039,23.2916364 C31.4708571,23.2916364 31.9294156,23.3882208 32.3775325,23.590961 C33.6296494,24.1565455 34.3187922,25.3355714 33.9167922,26.223974 C33.6592338,26.7947792 33.0135974,27.1071558 32.2531039,27.1071558" id="Fill-212" fill="#F86969" sketch:type="MSShapeGroup"></path>
                    <g id="Group-215">
                        <mask id="mask-2" sketch:name="Clip 214" fill="white">
                            <use xlink:href="#path-1"></use>
                        </mask>
                        <g id="Clip-214"></g>
                        <path d="M33.2128571,66.6989351 C23.2411688,66.6989351 14.2962338,62.2943377 8.21924675,55.3263377 C14.2962338,62.2943377 23.2411688,66.6989351 33.2128571,66.6989351 M0.0635194805,33.5495974 L0.0635194805,33.5495974 C0.0635194805,15.2411948 14.9053247,0.40025974 33.2128571,0.40025974 C14.9053247,0.40025974 0.0635194805,15.2411948 0.0635194805,33.5495974" id="Fill-213" sketch:type="MSShapeGroup" mask="url(#mask-2)"></path>
                    </g>
                    <path d="M33.2128571,66.6989351 C23.2411688,66.6989351 14.2962338,62.2943377 8.21924675,55.3263377 C3.13942857,49.5016883 0.0635194805,41.8854416 0.0635194805,33.5495974 C0.0635194805,15.2411948 14.9053247,0.40025974 33.2128571,0.40025974 C33.7584286,0.40025974 34.2900779,0.455077922 34.8286883,0.481181818 C29.0954026,6.48333766 25.5531039,14.5972987 25.5531039,23.5535455 C25.5531039,41.2659091 39.3385714,55.7222468 56.7603117,56.8725584 C50.7529351,62.9373636 42.4240519,66.6989351 33.2128571,66.6989351 M43.9807143,56.9848052 C43.5334675,56.9848052 43.0461948,57.0953117 42.5754545,57.3267662 C41.3416104,57.9315065 40.689013,59.1314156 41.117987,60.0067662 C41.3833766,60.547987 41.9994286,60.8377403 42.7233766,60.8377403 C43.1697532,60.8377403 43.6578961,60.7272338 44.1286364,60.4966494 C45.3624805,59.8919091 46.0150779,58.6911299 45.5861039,57.8166494 C45.3207143,57.2754286 44.7037922,56.9848052 43.9807143,56.9848052 M19.8494026,49.7261818 C18.8913896,49.7261818 18.0917403,50.0550909 17.6758182,50.7137792 C16.8413636,52.0337662 17.8628961,54.1777662 19.9581688,55.5012338 C21.0075455,56.1651429 22.1282727,56.4966623 23.0888961,56.4966623 C24.046039,56.4966623 24.8456883,56.1677532 25.2624805,55.5090649 C26.0969351,54.1890779 25.0745325,52.0459481 22.9801299,50.7216104 C21.9298831,50.0577013 20.810026,49.7261818 19.8494026,49.7261818 M14.9644935,23.2724935 C12.6377662,23.2724935 10.2057532,24.2931558 8.37325974,26.2648701 C5.12506494,29.7575714 4.99193506,34.9130909 8.07480519,37.7792987 C9.41741558,39.0279351 11.1498442,39.6361558 12.9457922,39.6361558 C15.2716494,39.6361558 17.7045325,38.6154935 19.537026,36.6446494 C22.7852208,33.1510779 22.9183506,27.9964286 19.8354805,25.1293506 C18.492,23.8807143 16.7595714,23.2724935 14.9644935,23.2724935 M17.4191299,9.97603896 C16.4994026,9.97603896 15.4430649,10.4398182 14.5938182,11.3047273 C13.2155325,12.709987 12.9057662,14.6416753 13.9029351,15.6205714 C14.2857922,15.9955974 14.8052597,16.1765844 15.3786753,16.1765844 C16.2984026,16.1765844 17.3547403,15.7128052 18.203987,14.8478961 C19.5822727,13.4426364 19.892039,11.5100779 18.8948701,10.5320519 C18.512013,10.1561558 17.9925455,9.97603896 17.4191299,9.97603896" id="Fill-216" fill="#BF3A2F" sketch:type="MSShapeGroup"></path>
                    <path d="M12.9457922,39.6361558 C11.1498442,39.6361558 9.41741558,39.0279351 8.07480519,37.7792987 C4.99193506,34.9130909 5.12506494,29.7575714 8.37325974,26.2648701 C10.2057532,24.2931558 12.6377662,23.2724935 14.9644935,23.2724935 C16.7595714,23.2724935 18.492,23.8807143 19.8354805,25.1293506 C22.9183506,27.9964286 22.7852208,33.1510779 19.537026,36.6446494 C17.7045325,38.6154935 15.2716494,39.6361558 12.9457922,39.6361558 M14.4476364,24.4001818 C12.5768571,24.4001818 10.6199351,25.2207143 9.14680519,26.8060909 C6.53467532,29.6148701 6.42764935,33.761039 8.90664935,36.066013 C9.98648052,37.0692727 11.3804286,37.5591558 12.823974,37.5591558 C14.6947532,37.5591558 16.6508052,36.7386234 18.1248052,35.1532468 C20.7360649,32.3444675 20.843961,28.1982987 18.3640909,25.8933247 C17.2842597,24.8891948 15.8911818,24.4001818 14.4476364,24.4001818" id="Fill-217" fill="#A9321F" sketch:type="MSShapeGroup"></path>
                    <path d="M12.823974,37.5591558 C11.3804286,37.5591558 9.98648052,37.0692727 8.90664935,36.066013 C6.42764935,33.761039 6.53467532,29.6148701 9.14680519,26.8060909 C10.6199351,25.2207143 12.5768571,24.4001818 14.4476364,24.4001818 C15.8911818,24.4001818 17.2842597,24.8891948 18.3640909,25.8933247 C20.843961,28.1982987 20.7360649,32.3444675 18.1248052,35.1532468 C16.6508052,36.7386234 14.6947532,37.5591558 12.823974,37.5591558" id="Fill-218" fill="#D6533D" sketch:type="MSShapeGroup"></path>
                    <path d="M23.0888961,56.4966623 C22.1282727,56.4966623 21.0075455,56.1651429 19.9581688,55.5012338 C17.8628961,54.1777662 16.8413636,52.0337662 17.6758182,50.7137792 C18.0917403,50.0550909 18.8913896,49.7261818 19.8494026,49.7261818 C20.810026,49.7261818 21.9298831,50.0577013 22.9801299,50.7216104 C25.0745325,52.0459481 26.0969351,54.1890779 25.2624805,55.5090649 C24.8456883,56.1677532 24.046039,56.4966623 23.0888961,56.4966623 M19.9981948,50.5275714 C19.229,50.5275714 18.5851039,50.7920909 18.250974,51.322 C17.5801039,52.3835584 18.4015065,54.1072857 20.0860779,55.1723247 C20.9301039,55.7057143 21.8306883,55.9728442 22.6042338,55.9728442 C23.3742987,55.9728442 24.0173247,55.7083247 24.3523247,55.1784156 C25.0223247,54.1168571 24.2009221,52.3922597 22.5163506,51.3280909 C21.6723247,50.7947013 20.7717403,50.5275714 19.9981948,50.5275714" id="Fill-219" fill="#A9321F" sketch:type="MSShapeGroup"></path>
                    <path d="M22.6042338,55.9728442 C21.8306883,55.9728442 20.9301039,55.7057143 20.0860779,55.1723247 C18.4015065,54.1072857 17.5801039,52.3835584 18.250974,51.322 C18.5851039,50.7920909 19.229,50.5275714 19.9981948,50.5275714 C20.7717403,50.5275714 21.6723247,50.7947013 22.5163506,51.3280909 C24.2009221,52.3922597 25.0223247,54.1168571 24.3523247,55.1784156 C24.0173247,55.7083247 23.3742987,55.9728442 22.6042338,55.9728442" id="Fill-220" fill="#D6533D" sketch:type="MSShapeGroup"></path>
                    <path d="M15.3786753,16.1765844 C14.8052597,16.1765844 14.2857922,15.9955974 13.9029351,15.6205714 C12.9057662,14.6416753 13.2155325,12.709987 14.5938182,11.3047273 C15.4430649,10.4398182 16.4994026,9.97603896 17.4191299,9.97603896 C17.9925455,9.97603896 18.512013,10.1561558 18.8948701,10.5320519 C19.892039,11.5100779 19.5822727,13.4426364 18.203987,14.8478961 C17.3547403,15.7128052 16.2984026,16.1765844 15.3786753,16.1765844" id="Fill-221" fill="#DA5A48" sketch:type="MSShapeGroup"></path>
                    <path d="M42.7233766,60.8377403 C41.9994286,60.8377403 41.3833766,60.547987 41.117987,60.0067662 C40.689013,59.1314156 41.3416104,57.9315065 42.5754545,57.3267662 C43.0461948,57.0953117 43.5334675,56.9848052 43.9807143,56.9848052 C44.7037922,56.9848052 45.3207143,57.2754286 45.5861039,57.8166494 C46.0150779,58.6911299 45.3624805,59.8919091 44.1286364,60.4966494 C43.6578961,60.7272338 43.1697532,60.8377403 42.7233766,60.8377403" id="Fill-222" fill="#DA5A48" sketch:type="MSShapeGroup"></path>
                </g>
            </g>
        </g>
    </g>
</svg>